<mxfile host="app.diagrams.net" modified="2024-02-17T18:58:54.435Z" agent="Mozilla/5.0 (Windows NT 10.0; Win64; x64) AppleWebKit/537.36 (KHTML, like Gecko) Chrome/121.0.0.0 Safari/537.36" etag="_7wjmZ-j4Dk0UI1KSgZ7" version="23.1.5" type="device">
  <diagram name="Страница — 1" id="XEbJruYfq7PjaxfaN8Qj">
    <mxGraphModel dx="2261" dy="1915" grid="1" gridSize="10" guides="1" tooltips="1" connect="1" arrows="1" fold="1" page="1" pageScale="1" pageWidth="827" pageHeight="1169" math="0" shadow="0">
      <root>
        <mxCell id="0" />
        <mxCell id="1" parent="0" />
        <mxCell id="1Xk3TkObRtZK_aOqon2_-1" value="" style="swimlane;startSize=160;" parent="1" vertex="1">
          <mxGeometry x="-90" y="-300" width="1650" height="1110" as="geometry" />
        </mxCell>
        <mxCell id="1Xk3TkObRtZK_aOqon2_-2" value="" style="endArrow=none;html=1;rounded=0;" parent="1Xk3TkObRtZK_aOqon2_-1" source="1Xk3TkObRtZK_aOqon2_-1" edge="1">
          <mxGeometry width="50" height="50" relative="1" as="geometry">
            <mxPoint x="100" y="50" as="sourcePoint" />
            <mxPoint x="150" as="targetPoint" />
          </mxGeometry>
        </mxCell>
        <mxCell id="1Xk3TkObRtZK_aOqon2_-3" value="" style="endArrow=none;html=1;rounded=0;" parent="1Xk3TkObRtZK_aOqon2_-1" edge="1">
          <mxGeometry width="50" height="50" relative="1" as="geometry">
            <mxPoint x="170" y="160" as="sourcePoint" />
            <mxPoint x="169.99764705882365" as="targetPoint" />
          </mxGeometry>
        </mxCell>
        <mxCell id="1Xk3TkObRtZK_aOqon2_-4" value="&lt;font style=&quot;font-size: 14px;&quot;&gt;Используется в:&lt;/font&gt;" style="text;strokeColor=none;align=center;fillColor=none;html=1;verticalAlign=middle;whiteSpace=wrap;rounded=0;" parent="1Xk3TkObRtZK_aOqon2_-1" vertex="1">
          <mxGeometry x="10" width="140" height="50" as="geometry" />
        </mxCell>
        <mxCell id="1Xk3TkObRtZK_aOqon2_-5" value="&lt;font style=&quot;font-size: 14px;&quot;&gt;Автор:&lt;/font&gt;" style="text;strokeColor=none;align=center;fillColor=none;html=1;verticalAlign=middle;whiteSpace=wrap;rounded=0;" parent="1Xk3TkObRtZK_aOqon2_-1" vertex="1">
          <mxGeometry x="200" y="10" width="60" height="30" as="geometry" />
        </mxCell>
        <mxCell id="1Xk3TkObRtZK_aOqon2_-6" value="&lt;font style=&quot;font-size: 14px;&quot;&gt;Проект:&lt;/font&gt;" style="text;strokeColor=none;align=center;fillColor=none;html=1;verticalAlign=middle;whiteSpace=wrap;rounded=0;" parent="1Xk3TkObRtZK_aOqon2_-1" vertex="1">
          <mxGeometry x="200" y="50" width="60" height="30" as="geometry" />
        </mxCell>
        <mxCell id="1Xk3TkObRtZK_aOqon2_-7" value="&lt;font style=&quot;font-size: 14px;&quot;&gt;Замечания:&amp;nbsp; &amp;nbsp; &amp;nbsp;1 2 3 4 5 6 7 8 9 10&lt;/font&gt;" style="text;strokeColor=none;align=center;fillColor=none;html=1;verticalAlign=middle;whiteSpace=wrap;rounded=0;" parent="1Xk3TkObRtZK_aOqon2_-1" vertex="1">
          <mxGeometry x="200" y="90" width="220" height="30" as="geometry" />
        </mxCell>
        <mxCell id="1Xk3TkObRtZK_aOqon2_-8" value="&lt;span style=&quot;font-size: 14px;&quot;&gt;5 группа&lt;/span&gt;" style="text;strokeColor=none;align=left;fillColor=none;html=1;verticalAlign=middle;whiteSpace=wrap;rounded=0;" parent="1Xk3TkObRtZK_aOqon2_-1" vertex="1">
          <mxGeometry x="270" y="10" width="60" height="30" as="geometry" />
        </mxCell>
        <mxCell id="1Xk3TkObRtZK_aOqon2_-9" value="&lt;font style=&quot;font-size: 14px;&quot;&gt;Создание бренда одежды&lt;/font&gt;" style="text;strokeColor=none;align=left;fillColor=none;html=1;verticalAlign=middle;whiteSpace=wrap;rounded=0;" parent="1Xk3TkObRtZK_aOqon2_-1" vertex="1">
          <mxGeometry x="270" y="50" width="180" height="30" as="geometry" />
        </mxCell>
        <mxCell id="1Xk3TkObRtZK_aOqon2_-10" value="" style="endArrow=none;html=1;rounded=0;entryX=0.5;entryY=0;entryDx=0;entryDy=0;" parent="1Xk3TkObRtZK_aOqon2_-1" edge="1">
          <mxGeometry width="50" height="50" relative="1" as="geometry">
            <mxPoint x="690" y="160" as="sourcePoint" />
            <mxPoint x="690" as="targetPoint" />
          </mxGeometry>
        </mxCell>
        <mxCell id="1Xk3TkObRtZK_aOqon2_-11" value="&lt;font style=&quot;font-size: 14px;&quot;&gt;&lt;font style=&quot;font-size: 14px;&quot;&gt;Дата: 16.02.2024&lt;/font&gt;&lt;/font&gt;" style="text;strokeColor=none;align=center;fillColor=none;html=1;verticalAlign=middle;whiteSpace=wrap;rounded=0;" parent="1Xk3TkObRtZK_aOqon2_-1" vertex="1">
          <mxGeometry x="530" y="10" width="160" height="30" as="geometry" />
        </mxCell>
        <mxCell id="1Xk3TkObRtZK_aOqon2_-12" value="&lt;font style=&quot;font-size: 14px;&quot;&gt;Пересмотр:&lt;/font&gt;" style="text;strokeColor=none;align=center;fillColor=none;html=1;verticalAlign=middle;whiteSpace=wrap;rounded=0;" parent="1Xk3TkObRtZK_aOqon2_-1" vertex="1">
          <mxGeometry x="530" y="50" width="120" height="30" as="geometry" />
        </mxCell>
        <mxCell id="1Xk3TkObRtZK_aOqon2_-13" value="" style="endArrow=none;html=1;rounded=0;" parent="1Xk3TkObRtZK_aOqon2_-1" edge="1">
          <mxGeometry width="50" height="50" relative="1" as="geometry">
            <mxPoint x="736" y="160" as="sourcePoint" />
            <mxPoint x="736" as="targetPoint" />
          </mxGeometry>
        </mxCell>
        <mxCell id="1Xk3TkObRtZK_aOqon2_-14" value="" style="endArrow=none;html=1;rounded=0;" parent="1Xk3TkObRtZK_aOqon2_-1" edge="1">
          <mxGeometry width="50" height="50" relative="1" as="geometry">
            <mxPoint x="1416" y="160" as="sourcePoint" />
            <mxPoint x="1416" as="targetPoint" />
          </mxGeometry>
        </mxCell>
        <mxCell id="1Xk3TkObRtZK_aOqon2_-15" value="" style="rounded=0;whiteSpace=wrap;html=1;fillColor=#1A1A1A;" parent="1Xk3TkObRtZK_aOqon2_-1" vertex="1">
          <mxGeometry x="1516" y="100" width="30" height="20" as="geometry" />
        </mxCell>
        <mxCell id="1Xk3TkObRtZK_aOqon2_-16" value="&lt;font style=&quot;font-size: 14px;&quot;&gt;Контекст:&lt;/font&gt;" style="text;strokeColor=none;align=center;fillColor=none;html=1;verticalAlign=middle;whiteSpace=wrap;rounded=0;" parent="1Xk3TkObRtZK_aOqon2_-1" vertex="1">
          <mxGeometry x="1501" y="60" width="60" height="30" as="geometry" />
        </mxCell>
        <mxCell id="1Xk3TkObRtZK_aOqon2_-17" value="" style="endArrow=none;html=1;rounded=0;exitX=1;exitY=1;exitDx=0;exitDy=0;" parent="1Xk3TkObRtZK_aOqon2_-1" source="1Xk3TkObRtZK_aOqon2_-11" edge="1">
          <mxGeometry width="50" height="50" relative="1" as="geometry">
            <mxPoint x="696" y="40" as="sourcePoint" />
            <mxPoint x="1416" y="40" as="targetPoint" />
          </mxGeometry>
        </mxCell>
        <mxCell id="1Xk3TkObRtZK_aOqon2_-18" value="" style="endArrow=none;html=1;rounded=0;" parent="1Xk3TkObRtZK_aOqon2_-1" edge="1">
          <mxGeometry width="50" height="50" relative="1" as="geometry">
            <mxPoint x="690" y="80" as="sourcePoint" />
            <mxPoint x="1416" y="80" as="targetPoint" />
          </mxGeometry>
        </mxCell>
        <mxCell id="1Xk3TkObRtZK_aOqon2_-19" value="" style="endArrow=none;html=1;rounded=0;" parent="1Xk3TkObRtZK_aOqon2_-1" edge="1">
          <mxGeometry width="50" height="50" relative="1" as="geometry">
            <mxPoint x="690" y="120" as="sourcePoint" />
            <mxPoint x="1416" y="120" as="targetPoint" />
          </mxGeometry>
        </mxCell>
        <mxCell id="1Xk3TkObRtZK_aOqon2_-20" value="&lt;font style=&quot;font-size: 14px;&quot;&gt;Рабочая Версия&amp;nbsp;&lt;/font&gt;" style="text;strokeColor=none;align=center;fillColor=none;html=1;verticalAlign=middle;whiteSpace=wrap;rounded=0;" parent="1Xk3TkObRtZK_aOqon2_-1" vertex="1">
          <mxGeometry x="720" y="10" width="150" height="30" as="geometry" />
        </mxCell>
        <mxCell id="1Xk3TkObRtZK_aOqon2_-21" value="&lt;font style=&quot;font-size: 14px;&quot;&gt;Эскиз&lt;/font&gt;" style="text;strokeColor=none;align=center;fillColor=none;html=1;verticalAlign=middle;whiteSpace=wrap;rounded=0;" parent="1Xk3TkObRtZK_aOqon2_-1" vertex="1">
          <mxGeometry x="690" y="50" width="140" height="30" as="geometry" />
        </mxCell>
        <mxCell id="1Xk3TkObRtZK_aOqon2_-22" value="&lt;font style=&quot;font-size: 14px;&quot;&gt;Рекомендовано&lt;/font&gt;" style="text;strokeColor=none;align=left;fillColor=none;html=1;verticalAlign=middle;whiteSpace=wrap;rounded=0;" parent="1Xk3TkObRtZK_aOqon2_-1" vertex="1">
          <mxGeometry x="740" y="90" width="60" height="30" as="geometry" />
        </mxCell>
        <mxCell id="1Xk3TkObRtZK_aOqon2_-23" value="&lt;font style=&quot;font-size: 14px;&quot;&gt;Публикация&lt;/font&gt;" style="text;strokeColor=none;align=center;fillColor=none;html=1;verticalAlign=middle;whiteSpace=wrap;rounded=0;" parent="1Xk3TkObRtZK_aOqon2_-1" vertex="1">
          <mxGeometry x="750" y="130" width="60" height="30" as="geometry" />
        </mxCell>
        <mxCell id="1Xk3TkObRtZK_aOqon2_-24" style="edgeStyle=orthogonalEdgeStyle;rounded=0;orthogonalLoop=1;jettySize=auto;html=1;exitX=0.5;exitY=1;exitDx=0;exitDy=0;" parent="1Xk3TkObRtZK_aOqon2_-1" source="1Xk3TkObRtZK_aOqon2_-22" target="1Xk3TkObRtZK_aOqon2_-22" edge="1">
          <mxGeometry relative="1" as="geometry" />
        </mxCell>
        <mxCell id="1Xk3TkObRtZK_aOqon2_-25" value="" style="endArrow=none;html=1;rounded=0;" parent="1Xk3TkObRtZK_aOqon2_-1" edge="1">
          <mxGeometry width="50" height="50" relative="1" as="geometry">
            <mxPoint x="1080" y="160" as="sourcePoint" />
            <mxPoint x="1080" as="targetPoint" />
          </mxGeometry>
        </mxCell>
        <mxCell id="1Xk3TkObRtZK_aOqon2_-30" value="" style="shape=table;startSize=0;container=1;collapsible=0;childLayout=tableLayout;" parent="1Xk3TkObRtZK_aOqon2_-1" vertex="1">
          <mxGeometry y="1070" width="1650" height="40" as="geometry" />
        </mxCell>
        <mxCell id="1Xk3TkObRtZK_aOqon2_-31" value="" style="shape=tableRow;horizontal=0;startSize=0;swimlaneHead=0;swimlaneBody=0;strokeColor=inherit;top=0;left=0;bottom=0;right=0;collapsible=0;dropTarget=0;fillColor=none;points=[[0,0.5],[1,0.5]];portConstraint=eastwest;" parent="1Xk3TkObRtZK_aOqon2_-30" vertex="1">
          <mxGeometry width="1650" height="40" as="geometry" />
        </mxCell>
        <mxCell id="1Xk3TkObRtZK_aOqon2_-32" value="" style="shape=partialRectangle;html=1;whiteSpace=wrap;connectable=0;strokeColor=inherit;overflow=hidden;fillColor=none;top=0;left=0;bottom=0;right=0;pointerEvents=1;" parent="1Xk3TkObRtZK_aOqon2_-31" vertex="1">
          <mxGeometry width="300" height="40" as="geometry">
            <mxRectangle width="300" height="40" as="alternateBounds" />
          </mxGeometry>
        </mxCell>
        <mxCell id="1Xk3TkObRtZK_aOqon2_-33" value="" style="shape=partialRectangle;html=1;whiteSpace=wrap;connectable=0;strokeColor=inherit;overflow=hidden;fillColor=none;top=0;left=0;bottom=0;right=0;pointerEvents=1;" parent="1Xk3TkObRtZK_aOqon2_-31" vertex="1">
          <mxGeometry x="300" width="860" height="40" as="geometry">
            <mxRectangle width="860" height="40" as="alternateBounds" />
          </mxGeometry>
        </mxCell>
        <mxCell id="1Xk3TkObRtZK_aOqon2_-34" value="" style="shape=partialRectangle;html=1;whiteSpace=wrap;connectable=0;strokeColor=inherit;overflow=hidden;fillColor=none;top=0;left=0;bottom=0;right=0;pointerEvents=1;" parent="1Xk3TkObRtZK_aOqon2_-31" vertex="1">
          <mxGeometry x="1160" width="490" height="40" as="geometry">
            <mxRectangle width="490" height="40" as="alternateBounds" />
          </mxGeometry>
        </mxCell>
        <mxCell id="1Xk3TkObRtZK_aOqon2_-35" value="&lt;font style=&quot;font-size: 14px;&quot;&gt;Узел:&lt;/font&gt;" style="text;strokeColor=none;align=center;fillColor=none;html=1;verticalAlign=middle;whiteSpace=wrap;rounded=0;" parent="1Xk3TkObRtZK_aOqon2_-1" vertex="1">
          <mxGeometry x="50" y="1075" width="60" height="30" as="geometry" />
        </mxCell>
        <mxCell id="1Xk3TkObRtZK_aOqon2_-36" value="&lt;font style=&quot;font-size: 14px;&quot;&gt;Название&lt;/font&gt;" style="text;strokeColor=none;align=center;fillColor=none;html=1;verticalAlign=middle;whiteSpace=wrap;rounded=0;" parent="1Xk3TkObRtZK_aOqon2_-1" vertex="1">
          <mxGeometry x="354" y="1075" width="60" height="30" as="geometry" />
        </mxCell>
        <mxCell id="1Xk3TkObRtZK_aOqon2_-37" value="&lt;font style=&quot;font-size: 14px;&quot;&gt;Создание бренда одежды&lt;/font&gt;" style="text;strokeColor=none;align=center;fillColor=none;html=1;verticalAlign=middle;whiteSpace=wrap;rounded=0;" parent="1Xk3TkObRtZK_aOqon2_-1" vertex="1">
          <mxGeometry x="640" y="1075" width="370" height="25" as="geometry" />
        </mxCell>
        <mxCell id="1Xk3TkObRtZK_aOqon2_-38" value="&lt;font style=&quot;font-size: 14px;&quot;&gt;Номер&lt;/font&gt;" style="text;strokeColor=none;align=center;fillColor=none;html=1;verticalAlign=middle;whiteSpace=wrap;rounded=0;" parent="1Xk3TkObRtZK_aOqon2_-1" vertex="1">
          <mxGeometry x="1200" y="1075" width="60" height="30" as="geometry" />
        </mxCell>
        <mxCell id="1Xk3TkObRtZK_aOqon2_-127" value="Разработка фирменного стиля" style="rounded=0;whiteSpace=wrap;html=1;fillColor=#dae8fc;strokeColor=#6c8ebf;" parent="1Xk3TkObRtZK_aOqon2_-1" vertex="1">
          <mxGeometry x="340" y="430" width="160" height="80" as="geometry" />
        </mxCell>
        <mxCell id="1Xk3TkObRtZK_aOqon2_-118" value="" style="endArrow=classic;html=1;rounded=1;curved=0;fillColor=#f8cecc;strokeColor=#b85450;" parent="1Xk3TkObRtZK_aOqon2_-1" edge="1">
          <mxGeometry width="50" height="50" relative="1" as="geometry">
            <mxPoint x="130" y="210" as="sourcePoint" />
            <mxPoint x="130" y="310" as="targetPoint" />
          </mxGeometry>
        </mxCell>
        <mxCell id="1Xk3TkObRtZK_aOqon2_-116" value="Определение с направлением бренда&amp;nbsp;" style="rounded=0;whiteSpace=wrap;html=1;fillColor=#dae8fc;strokeColor=#6c8ebf;" parent="1Xk3TkObRtZK_aOqon2_-1" vertex="1">
          <mxGeometry x="90" y="310" width="160" height="80" as="geometry" />
        </mxCell>
        <mxCell id="1Xk3TkObRtZK_aOqon2_-171" value="" style="endArrow=classic;html=1;rounded=0;fillColor=#d5e8d4;strokeColor=#82b366;" parent="1Xk3TkObRtZK_aOqon2_-1" edge="1">
          <mxGeometry width="50" height="50" relative="1" as="geometry">
            <mxPoint x="20" y="330" as="sourcePoint" />
            <mxPoint x="90" y="330" as="targetPoint" />
          </mxGeometry>
        </mxCell>
        <mxCell id="1Xk3TkObRtZK_aOqon2_-172" value="Идея" style="text;html=1;strokeColor=none;fillColor=none;align=center;verticalAlign=middle;whiteSpace=wrap;rounded=0;" parent="1Xk3TkObRtZK_aOqon2_-1" vertex="1">
          <mxGeometry x="30" y="340" width="60" height="30" as="geometry" />
        </mxCell>
        <mxCell id="1Xk3TkObRtZK_aOqon2_-173" value="" style="endArrow=classic;html=1;rounded=0;fillColor=#f8cecc;strokeColor=#b85450;" parent="1Xk3TkObRtZK_aOqon2_-1" edge="1">
          <mxGeometry width="50" height="50" relative="1" as="geometry">
            <mxPoint x="20" y="370" as="sourcePoint" />
            <mxPoint x="90" y="370" as="targetPoint" />
          </mxGeometry>
        </mxCell>
        <mxCell id="1Xk3TkObRtZK_aOqon2_-174" value="Финансы" style="text;html=1;strokeColor=none;fillColor=none;align=center;verticalAlign=middle;whiteSpace=wrap;rounded=0;" parent="1Xk3TkObRtZK_aOqon2_-1" vertex="1">
          <mxGeometry x="30" y="300" width="60" height="30" as="geometry" />
        </mxCell>
        <mxCell id="1Xk3TkObRtZK_aOqon2_-177" value="Анализ современного рынка" style="text;html=1;strokeColor=none;fillColor=none;align=center;verticalAlign=middle;whiteSpace=wrap;rounded=0;" parent="1Xk3TkObRtZK_aOqon2_-1" vertex="1">
          <mxGeometry x="80" y="170" width="90" height="30" as="geometry" />
        </mxCell>
        <mxCell id="1Xk3TkObRtZK_aOqon2_-178" value="" style="endArrow=classic;html=1;rounded=0;fillColor=#f8cecc;strokeColor=#b85450;" parent="1Xk3TkObRtZK_aOqon2_-1" edge="1">
          <mxGeometry width="50" height="50" relative="1" as="geometry">
            <mxPoint x="209.52" y="210" as="sourcePoint" />
            <mxPoint x="209.52" y="310" as="targetPoint" />
          </mxGeometry>
        </mxCell>
        <mxCell id="1Xk3TkObRtZK_aOqon2_-179" value="Мнение общества" style="text;html=1;strokeColor=none;fillColor=none;align=center;verticalAlign=middle;whiteSpace=wrap;rounded=0;" parent="1Xk3TkObRtZK_aOqon2_-1" vertex="1">
          <mxGeometry x="180" y="180" width="60" height="30" as="geometry" />
        </mxCell>
        <mxCell id="1Xk3TkObRtZK_aOqon2_-180" value="" style="endArrow=classic;html=1;rounded=1;curved=0;fillColor=#fff2cc;strokeColor=#d6b656;" parent="1Xk3TkObRtZK_aOqon2_-1" edge="1">
          <mxGeometry width="50" height="50" relative="1" as="geometry">
            <mxPoint x="90" y="580" as="sourcePoint" />
            <mxPoint x="130" y="390" as="targetPoint" />
            <Array as="points">
              <mxPoint x="130" y="580" />
            </Array>
          </mxGeometry>
        </mxCell>
        <mxCell id="1Xk3TkObRtZK_aOqon2_-181" value="Друзья" style="text;html=1;strokeColor=none;fillColor=none;align=center;verticalAlign=middle;whiteSpace=wrap;rounded=0;" parent="1Xk3TkObRtZK_aOqon2_-1" vertex="1">
          <mxGeometry x="60" y="590" width="60" height="30" as="geometry" />
        </mxCell>
        <mxCell id="1Xk3TkObRtZK_aOqon2_-183" value="" style="endArrow=classic;html=1;rounded=1;curved=0;fillColor=#f8cecc;strokeColor=#b85450;" parent="1Xk3TkObRtZK_aOqon2_-1" edge="1">
          <mxGeometry width="50" height="50" relative="1" as="geometry">
            <mxPoint x="250" y="580" as="sourcePoint" />
            <mxPoint x="209.58" y="390" as="targetPoint" />
            <Array as="points">
              <mxPoint x="210" y="580" />
            </Array>
          </mxGeometry>
        </mxCell>
        <mxCell id="1Xk3TkObRtZK_aOqon2_-187" value="Интернет" style="text;html=1;strokeColor=none;fillColor=none;align=center;verticalAlign=middle;whiteSpace=wrap;rounded=0;" parent="1Xk3TkObRtZK_aOqon2_-1" vertex="1">
          <mxGeometry x="220" y="590" width="60" height="30" as="geometry" />
        </mxCell>
        <mxCell id="1Xk3TkObRtZK_aOqon2_-188" value="" style="endArrow=classic;html=1;rounded=0;fillColor=#f8cecc;strokeColor=#b85450;" parent="1Xk3TkObRtZK_aOqon2_-1" edge="1">
          <mxGeometry width="50" height="50" relative="1" as="geometry">
            <mxPoint x="169.17000000000002" y="580" as="sourcePoint" />
            <mxPoint x="169.17000000000002" y="390" as="targetPoint" />
          </mxGeometry>
        </mxCell>
        <mxCell id="1Xk3TkObRtZK_aOqon2_-189" value="Собственные предпочтения" style="text;html=1;strokeColor=none;fillColor=none;align=center;verticalAlign=middle;whiteSpace=wrap;rounded=0;" parent="1Xk3TkObRtZK_aOqon2_-1" vertex="1">
          <mxGeometry x="140" y="590" width="60" height="30" as="geometry" />
        </mxCell>
        <mxCell id="1Xk3TkObRtZK_aOqon2_-191" value="" style="endArrow=classic;html=1;rounded=1;entryX=0;entryY=0.5;entryDx=0;entryDy=0;curved=0;fillColor=#f8cecc;strokeColor=#b85450;" parent="1Xk3TkObRtZK_aOqon2_-1" target="1Xk3TkObRtZK_aOqon2_-127" edge="1">
          <mxGeometry width="50" height="50" relative="1" as="geometry">
            <mxPoint x="250" y="350" as="sourcePoint" />
            <mxPoint x="300" y="300" as="targetPoint" />
            <Array as="points">
              <mxPoint x="300" y="350" />
              <mxPoint x="300" y="410" />
              <mxPoint x="300" y="470" />
            </Array>
          </mxGeometry>
        </mxCell>
        <mxCell id="1Xk3TkObRtZK_aOqon2_-192" value="" style="endArrow=classic;html=1;rounded=1;curved=0;entryX=0.25;entryY=0;entryDx=0;entryDy=0;fillColor=#f8cecc;strokeColor=#b85450;" parent="1Xk3TkObRtZK_aOqon2_-1" edge="1">
          <mxGeometry width="50" height="50" relative="1" as="geometry">
            <mxPoint x="210" y="260" as="sourcePoint" />
            <mxPoint x="450" y="430" as="targetPoint" />
            <Array as="points">
              <mxPoint x="450" y="260" />
            </Array>
          </mxGeometry>
        </mxCell>
        <mxCell id="1Xk3TkObRtZK_aOqon2_-193" value="" style="endArrow=classic;html=1;rounded=1;entryX=0.75;entryY=0;entryDx=0;entryDy=0;curved=0;fillColor=#f8cecc;strokeColor=#b85450;" parent="1Xk3TkObRtZK_aOqon2_-1" edge="1">
          <mxGeometry width="50" height="50" relative="1" as="geometry">
            <mxPoint x="130" y="280" as="sourcePoint" />
            <mxPoint x="390" y="430" as="targetPoint" />
            <Array as="points">
              <mxPoint x="130" y="280" />
              <mxPoint x="230" y="280" />
              <mxPoint x="390" y="280" />
            </Array>
          </mxGeometry>
        </mxCell>
        <mxCell id="1Xk3TkObRtZK_aOqon2_-194" value="" style="endArrow=classic;html=1;rounded=1;curved=0;entryX=0.25;entryY=1;entryDx=0;entryDy=0;fillColor=#f8cecc;strokeColor=#b85450;" parent="1Xk3TkObRtZK_aOqon2_-1" target="1Xk3TkObRtZK_aOqon2_-127" edge="1">
          <mxGeometry width="50" height="50" relative="1" as="geometry">
            <mxPoint x="170" y="540" as="sourcePoint" />
            <mxPoint x="410" y="510" as="targetPoint" />
            <Array as="points">
              <mxPoint x="380" y="540" />
            </Array>
          </mxGeometry>
        </mxCell>
        <mxCell id="1Xk3TkObRtZK_aOqon2_-195" value="" style="endArrow=classic;html=1;rounded=0;fillColor=#fff2cc;strokeColor=#d6b656;" parent="1Xk3TkObRtZK_aOqon2_-1" edge="1">
          <mxGeometry width="50" height="50" relative="1" as="geometry">
            <mxPoint x="420" y="650" as="sourcePoint" />
            <mxPoint x="420" y="510" as="targetPoint" />
          </mxGeometry>
        </mxCell>
        <mxCell id="1Xk3TkObRtZK_aOqon2_-196" value="Дизайнер" style="text;html=1;strokeColor=none;fillColor=none;align=center;verticalAlign=middle;whiteSpace=wrap;rounded=0;" parent="1Xk3TkObRtZK_aOqon2_-1" vertex="1">
          <mxGeometry x="370" y="650" width="60" height="30" as="geometry" />
        </mxCell>
        <mxCell id="1Xk3TkObRtZK_aOqon2_-197" value="" style="endArrow=classic;html=1;rounded=0;fillColor=#fff2cc;strokeColor=#d6b656;" parent="1Xk3TkObRtZK_aOqon2_-1" edge="1">
          <mxGeometry width="50" height="50" relative="1" as="geometry">
            <mxPoint x="460" y="510" as="sourcePoint" />
            <mxPoint x="460" y="510" as="targetPoint" />
            <Array as="points">
              <mxPoint x="460" y="650" />
            </Array>
          </mxGeometry>
        </mxCell>
        <mxCell id="1Xk3TkObRtZK_aOqon2_-198" value="Менеджер по продажам" style="text;html=1;strokeColor=none;fillColor=none;align=center;verticalAlign=middle;whiteSpace=wrap;rounded=0;" parent="1Xk3TkObRtZK_aOqon2_-1" vertex="1">
          <mxGeometry x="430" y="660" width="60" height="30" as="geometry" />
        </mxCell>
        <mxCell id="1Xk3TkObRtZK_aOqon2_-201" value="Направленность&amp;nbsp;" style="text;html=1;strokeColor=none;fillColor=none;align=center;verticalAlign=middle;whiteSpace=wrap;rounded=0;" parent="1Xk3TkObRtZK_aOqon2_-1" vertex="1">
          <mxGeometry x="270" y="320" width="60" height="30" as="geometry" />
        </mxCell>
        <mxCell id="1Xk3TkObRtZK_aOqon2_-115" value="Производство&lt;br&gt;одежды" style="rounded=0;whiteSpace=wrap;html=1;fillColor=#dae8fc;strokeColor=#6c8ebf;" parent="1Xk3TkObRtZK_aOqon2_-1" vertex="1">
          <mxGeometry x="610" y="550" width="160" height="80" as="geometry" />
        </mxCell>
        <mxCell id="1Xk3TkObRtZK_aOqon2_-203" value="" style="endArrow=classic;html=1;rounded=1;entryX=0.001;entryY=0.61;entryDx=0;entryDy=0;curved=0;exitX=1;exitY=0.5;exitDx=0;exitDy=0;entryPerimeter=0;fillColor=#d5e8d4;strokeColor=#82b366;" parent="1Xk3TkObRtZK_aOqon2_-1" source="1Xk3TkObRtZK_aOqon2_-127" target="1Xk3TkObRtZK_aOqon2_-115" edge="1">
          <mxGeometry width="50" height="50" relative="1" as="geometry">
            <mxPoint x="500" y="480" as="sourcePoint" />
            <mxPoint x="604" y="600" as="targetPoint" />
            <Array as="points">
              <mxPoint x="550" y="470" />
              <mxPoint x="550" y="540" />
              <mxPoint x="550" y="560" />
              <mxPoint x="550" y="600" />
            </Array>
          </mxGeometry>
        </mxCell>
        <mxCell id="1Xk3TkObRtZK_aOqon2_-204" value="Дизайн одежды" style="text;html=1;strokeColor=none;fillColor=none;align=center;verticalAlign=middle;whiteSpace=wrap;rounded=0;" parent="1Xk3TkObRtZK_aOqon2_-1" vertex="1">
          <mxGeometry x="550" y="510" width="60" height="30" as="geometry" />
        </mxCell>
        <mxCell id="1Xk3TkObRtZK_aOqon2_-205" value="" style="endArrow=classic;html=1;rounded=1;curved=0;fillColor=#d5e8d4;strokeColor=#82b366;" parent="1Xk3TkObRtZK_aOqon2_-1" edge="1">
          <mxGeometry width="50" height="50" relative="1" as="geometry">
            <mxPoint x="30" y="330" as="sourcePoint" />
            <mxPoint x="660" y="550" as="targetPoint" />
            <Array as="points">
              <mxPoint x="30" y="250" />
              <mxPoint x="370" y="250.99" />
              <mxPoint x="660" y="250" />
            </Array>
          </mxGeometry>
        </mxCell>
        <mxCell id="1Xk3TkObRtZK_aOqon2_-206" value="" style="endArrow=classic;html=1;rounded=0;fillColor=#fff2cc;strokeColor=#d6b656;" parent="1Xk3TkObRtZK_aOqon2_-1" edge="1">
          <mxGeometry width="50" height="50" relative="1" as="geometry">
            <mxPoint x="710" y="790" as="sourcePoint" />
            <mxPoint x="709.76" y="630" as="targetPoint" />
          </mxGeometry>
        </mxCell>
        <mxCell id="1Xk3TkObRtZK_aOqon2_-207" value="Портной" style="text;html=1;strokeColor=none;fillColor=none;align=center;verticalAlign=middle;whiteSpace=wrap;rounded=0;" parent="1Xk3TkObRtZK_aOqon2_-1" vertex="1">
          <mxGeometry x="680" y="810" width="60" height="30" as="geometry" />
        </mxCell>
        <mxCell id="1Xk3TkObRtZK_aOqon2_-208" value="" style="endArrow=classic;html=1;rounded=0;entryX=0;entryY=1;entryDx=0;entryDy=0;fillColor=#fff2cc;strokeColor=#d6b656;" parent="1Xk3TkObRtZK_aOqon2_-1" target="LBI3mMcfmEepGS83Ov2B-108" edge="1">
          <mxGeometry width="50" height="50" relative="1" as="geometry">
            <mxPoint x="750" y="790" as="sourcePoint" />
            <mxPoint x="790" y="640" as="targetPoint" />
          </mxGeometry>
        </mxCell>
        <mxCell id="1Xk3TkObRtZK_aOqon2_-209" value="Бухгалтер" style="text;html=1;strokeColor=none;fillColor=none;align=center;verticalAlign=middle;whiteSpace=wrap;rounded=0;" parent="1Xk3TkObRtZK_aOqon2_-1" vertex="1">
          <mxGeometry x="740" y="810" width="60" height="30" as="geometry" />
        </mxCell>
        <mxCell id="1Xk3TkObRtZK_aOqon2_-210" value="" style="endArrow=classic;html=1;rounded=0;entryX=0.75;entryY=0;entryDx=0;entryDy=0;exitX=0.5;exitY=1;exitDx=0;exitDy=0;fillColor=#fff2cc;strokeColor=#d6b656;" parent="1Xk3TkObRtZK_aOqon2_-1" source="1Xk3TkObRtZK_aOqon2_-212" edge="1">
          <mxGeometry width="50" height="50" relative="1" as="geometry">
            <mxPoint x="720" y="250" as="sourcePoint" />
            <mxPoint x="720" y="550" as="targetPoint" />
          </mxGeometry>
        </mxCell>
        <mxCell id="1Xk3TkObRtZK_aOqon2_-212" value="Специалист по качеству" style="text;html=1;strokeColor=none;fillColor=none;align=center;verticalAlign=middle;whiteSpace=wrap;rounded=0;" parent="1Xk3TkObRtZK_aOqon2_-1" vertex="1">
          <mxGeometry x="690" y="170" width="60" height="30" as="geometry" />
        </mxCell>
        <mxCell id="1Xk3TkObRtZK_aOqon2_-215" value="" style="endArrow=classic;html=1;rounded=0;fillColor=#d5e8d4;strokeColor=#82b366;" parent="1Xk3TkObRtZK_aOqon2_-1" edge="1">
          <mxGeometry width="50" height="50" relative="1" as="geometry">
            <mxPoint x="670" y="790" as="sourcePoint" />
            <mxPoint x="670" y="630" as="targetPoint" />
          </mxGeometry>
        </mxCell>
        <mxCell id="1Xk3TkObRtZK_aOqon2_-216" value="Материал" style="text;html=1;strokeColor=none;fillColor=none;align=center;verticalAlign=middle;whiteSpace=wrap;rounded=0;" parent="1Xk3TkObRtZK_aOqon2_-1" vertex="1">
          <mxGeometry x="620" y="810" width="60" height="30" as="geometry" />
        </mxCell>
        <mxCell id="1Xk3TkObRtZK_aOqon2_-218" value="" style="endArrow=classic;html=1;rounded=1;curved=0;fillColor=#d5e8d4;strokeColor=#82b366;" parent="1Xk3TkObRtZK_aOqon2_-1" edge="1">
          <mxGeometry width="50" height="50" relative="1" as="geometry">
            <mxPoint x="580" y="780" as="sourcePoint" />
            <mxPoint x="630" y="630" as="targetPoint" />
            <Array as="points">
              <mxPoint x="630" y="780" />
            </Array>
          </mxGeometry>
        </mxCell>
        <mxCell id="1Xk3TkObRtZK_aOqon2_-219" value="Швейные машины" style="text;html=1;strokeColor=none;fillColor=none;align=center;verticalAlign=middle;whiteSpace=wrap;rounded=0;" parent="1Xk3TkObRtZK_aOqon2_-1" vertex="1">
          <mxGeometry x="550" y="750" width="60" height="30" as="geometry" />
        </mxCell>
        <mxCell id="1Xk3TkObRtZK_aOqon2_-142" value="Продажи и логистика" style="rounded=0;whiteSpace=wrap;html=1;fillColor=#dae8fc;strokeColor=#6c8ebf;" parent="1Xk3TkObRtZK_aOqon2_-1" vertex="1">
          <mxGeometry x="910" y="770" width="160" height="80" as="geometry" />
        </mxCell>
        <mxCell id="1Xk3TkObRtZK_aOqon2_-220" value="" style="endArrow=classic;html=1;rounded=1;curved=0;fillColor=#d5e8d4;strokeColor=#82b366;" parent="1Xk3TkObRtZK_aOqon2_-1" edge="1">
          <mxGeometry width="50" height="50" relative="1" as="geometry">
            <mxPoint x="770" y="580" as="sourcePoint" />
            <mxPoint x="910" y="800" as="targetPoint" />
            <Array as="points">
              <mxPoint x="860" y="580" />
              <mxPoint x="860" y="660" />
              <mxPoint x="860" y="800" />
            </Array>
          </mxGeometry>
        </mxCell>
        <mxCell id="1Xk3TkObRtZK_aOqon2_-223" value="Готовая продукция" style="text;html=1;strokeColor=none;fillColor=none;align=center;verticalAlign=middle;whiteSpace=wrap;rounded=0;" parent="1Xk3TkObRtZK_aOqon2_-1" vertex="1">
          <mxGeometry x="780" y="540" width="60" height="30" as="geometry" />
        </mxCell>
        <mxCell id="1Xk3TkObRtZK_aOqon2_-227" value="" style="endArrow=classic;html=1;rounded=1;entryX=0.123;entryY=1.01;entryDx=0;entryDy=0;curved=0;entryPerimeter=0;fillColor=#fff2cc;strokeColor=#d6b656;" parent="1Xk3TkObRtZK_aOqon2_-1" target="1Xk3TkObRtZK_aOqon2_-142" edge="1">
          <mxGeometry width="50" height="50" relative="1" as="geometry">
            <mxPoint x="460" y="620" as="sourcePoint" />
            <mxPoint x="925.0800000000004" y="788" as="targetPoint" />
            <Array as="points">
              <mxPoint x="520" y="620" />
              <mxPoint x="520" y="880" />
              <mxPoint x="690" y="880" />
              <mxPoint x="930" y="880" />
            </Array>
          </mxGeometry>
        </mxCell>
        <mxCell id="1Xk3TkObRtZK_aOqon2_-228" value="" style="endArrow=classic;html=1;rounded=0;entryX=0.624;entryY=0.991;entryDx=0;entryDy=0;entryPerimeter=0;exitX=0.5;exitY=0;exitDx=0;exitDy=0;fillColor=#fff2cc;strokeColor=#d6b656;" parent="1Xk3TkObRtZK_aOqon2_-1" source="1Xk3TkObRtZK_aOqon2_-229" target="1Xk3TkObRtZK_aOqon2_-142" edge="1">
          <mxGeometry width="50" height="50" relative="1" as="geometry">
            <mxPoint x="1010" y="995" as="sourcePoint" />
            <mxPoint x="1020" y="850" as="targetPoint" />
          </mxGeometry>
        </mxCell>
        <mxCell id="1Xk3TkObRtZK_aOqon2_-229" value="Маркетолог" style="text;html=1;strokeColor=none;fillColor=none;align=center;verticalAlign=middle;whiteSpace=wrap;rounded=0;" parent="1Xk3TkObRtZK_aOqon2_-1" vertex="1">
          <mxGeometry x="980" y="1000" width="60" height="30" as="geometry" />
        </mxCell>
        <mxCell id="1Xk3TkObRtZK_aOqon2_-230" value="" style="endArrow=classic;html=1;rounded=1;entryX=0.5;entryY=0;entryDx=0;entryDy=0;curved=0;endSize=6;fillColor=#f8cecc;strokeColor=#b85450;" parent="1Xk3TkObRtZK_aOqon2_-1" target="1Xk3TkObRtZK_aOqon2_-142" edge="1">
          <mxGeometry width="50" height="50" relative="1" as="geometry">
            <mxPoint x="210" y="220" as="sourcePoint" />
            <mxPoint x="980" y="770" as="targetPoint" />
            <Array as="points">
              <mxPoint x="990" y="220" />
            </Array>
          </mxGeometry>
        </mxCell>
        <mxCell id="1Xk3TkObRtZK_aOqon2_-231" value="" style="endArrow=classic;html=1;rounded=0;entryX=0.75;entryY=0;entryDx=0;entryDy=0;exitX=0.5;exitY=1;exitDx=0;exitDy=0;fillColor=#d5e8d4;strokeColor=#82b366;" parent="1Xk3TkObRtZK_aOqon2_-1" source="1Xk3TkObRtZK_aOqon2_-232" edge="1">
          <mxGeometry width="50" height="50" relative="1" as="geometry">
            <mxPoint x="1030" y="220" as="sourcePoint" />
            <mxPoint x="1030" y="770" as="targetPoint" />
          </mxGeometry>
        </mxCell>
        <mxCell id="1Xk3TkObRtZK_aOqon2_-232" value="Цена" style="text;html=1;strokeColor=none;fillColor=none;align=center;verticalAlign=middle;whiteSpace=wrap;rounded=0;" parent="1Xk3TkObRtZK_aOqon2_-1" vertex="1">
          <mxGeometry x="1000" y="180" width="60" height="30" as="geometry" />
        </mxCell>
        <mxCell id="1Xk3TkObRtZK_aOqon2_-233" value="" style="endArrow=classic;html=1;rounded=1;entryX=0.25;entryY=0.005;entryDx=0;entryDy=0;curved=0;entryPerimeter=0;fillColor=#fff2cc;strokeColor=#d6b656;" parent="1Xk3TkObRtZK_aOqon2_-1" target="1Xk3TkObRtZK_aOqon2_-142" edge="1">
          <mxGeometry width="50" height="50" relative="1" as="geometry">
            <mxPoint x="750" y="770" as="sourcePoint" />
            <mxPoint x="840" y="720" as="targetPoint" />
            <Array as="points">
              <mxPoint x="750" y="700" />
              <mxPoint x="870" y="700" />
              <mxPoint x="950" y="700" />
            </Array>
          </mxGeometry>
        </mxCell>
        <mxCell id="1Xk3TkObRtZK_aOqon2_-234" value="" style="endArrow=classic;html=1;rounded=1;entryX=0.373;entryY=1.001;entryDx=0;entryDy=0;curved=0;entryPerimeter=0;fillColor=#f8cecc;strokeColor=#b85450;" parent="1Xk3TkObRtZK_aOqon2_-1" target="1Xk3TkObRtZK_aOqon2_-142" edge="1">
          <mxGeometry width="50" height="50" relative="1" as="geometry">
            <mxPoint x="210" y="480" as="sourcePoint" />
            <mxPoint x="270" y="430" as="targetPoint" />
            <Array as="points">
              <mxPoint x="300" y="480" />
              <mxPoint x="300" y="1000" />
              <mxPoint x="970" y="1000" />
            </Array>
          </mxGeometry>
        </mxCell>
        <mxCell id="1Xk3TkObRtZK_aOqon2_-235" value="" style="endArrow=classic;html=1;rounded=0;exitX=0.992;exitY=0.106;exitDx=0;exitDy=0;exitPerimeter=0;fillColor=#d5e8d4;strokeColor=#82b366;" parent="1Xk3TkObRtZK_aOqon2_-1" source="1Xk3TkObRtZK_aOqon2_-142" edge="1">
          <mxGeometry width="50" height="50" relative="1" as="geometry">
            <mxPoint x="1080" y="780" as="sourcePoint" />
            <mxPoint x="1360" y="780" as="targetPoint" />
          </mxGeometry>
        </mxCell>
        <mxCell id="1Xk3TkObRtZK_aOqon2_-236" value="Бренд одежды" style="text;html=1;strokeColor=none;fillColor=none;align=center;verticalAlign=middle;whiteSpace=wrap;rounded=0;" parent="1Xk3TkObRtZK_aOqon2_-1" vertex="1">
          <mxGeometry x="1140" y="750" width="100" height="30" as="geometry" />
        </mxCell>
        <mxCell id="1Xk3TkObRtZK_aOqon2_-237" value="" style="endArrow=classic;html=1;rounded=0;exitX=1;exitY=0.5;exitDx=0;exitDy=0;fillColor=#d5e8d4;strokeColor=#82b366;" parent="1Xk3TkObRtZK_aOqon2_-1" source="1Xk3TkObRtZK_aOqon2_-142" edge="1">
          <mxGeometry width="50" height="50" relative="1" as="geometry">
            <mxPoint x="1080" y="810" as="sourcePoint" />
            <mxPoint x="1360" y="810" as="targetPoint" />
          </mxGeometry>
        </mxCell>
        <mxCell id="1Xk3TkObRtZK_aOqon2_-238" value="Доход" style="text;html=1;strokeColor=none;fillColor=none;align=center;verticalAlign=middle;whiteSpace=wrap;rounded=0;" parent="1Xk3TkObRtZK_aOqon2_-1" vertex="1">
          <mxGeometry x="1140" y="780" width="50" height="30" as="geometry" />
        </mxCell>
        <mxCell id="1Xk3TkObRtZK_aOqon2_-240" value="" style="endArrow=classic;html=1;rounded=0;exitX=1.006;exitY=0.875;exitDx=0;exitDy=0;exitPerimeter=0;fillColor=#fff2cc;strokeColor=#d6b656;" parent="1Xk3TkObRtZK_aOqon2_-1" source="1Xk3TkObRtZK_aOqon2_-142" edge="1">
          <mxGeometry width="50" height="50" relative="1" as="geometry">
            <mxPoint x="1080" y="835" as="sourcePoint" />
            <mxPoint x="1360" y="840" as="targetPoint" />
          </mxGeometry>
        </mxCell>
        <mxCell id="1Xk3TkObRtZK_aOqon2_-241" value="Целевая аудитория" style="text;html=1;strokeColor=none;fillColor=none;align=center;verticalAlign=middle;whiteSpace=wrap;rounded=0;" parent="1Xk3TkObRtZK_aOqon2_-1" vertex="1">
          <mxGeometry x="1140" y="810" width="125" height="30" as="geometry" />
        </mxCell>
        <mxCell id="1Xk3TkObRtZK_aOqon2_-243" value="" style="endArrow=classic;html=1;rounded=1;entryX=0;entryY=0.75;entryDx=0;entryDy=0;curved=0;fillColor=#d5e8d4;strokeColor=#82b366;" parent="1Xk3TkObRtZK_aOqon2_-1" target="1Xk3TkObRtZK_aOqon2_-142" edge="1">
          <mxGeometry width="50" height="50" relative="1" as="geometry">
            <mxPoint x="770" y="600" as="sourcePoint" />
            <mxPoint x="857" y="580" as="targetPoint" />
            <Array as="points">
              <mxPoint x="810" y="600" />
              <mxPoint x="810" y="830" />
            </Array>
          </mxGeometry>
        </mxCell>
        <mxCell id="1Xk3TkObRtZK_aOqon2_-244" value="Расходы" style="text;html=1;strokeColor=none;fillColor=none;align=center;verticalAlign=middle;whiteSpace=wrap;rounded=0;" parent="1Xk3TkObRtZK_aOqon2_-1" vertex="1">
          <mxGeometry x="850" y="800" width="60" height="30" as="geometry" />
        </mxCell>
        <mxCell id="1Xk3TkObRtZK_aOqon2_-245" value="" style="endArrow=classic;html=1;rounded=1;curved=0;exitX=0.872;exitY=1.003;exitDx=0;exitDy=0;exitPerimeter=0;fillColor=#d5e8d4;strokeColor=#82b366;" parent="1Xk3TkObRtZK_aOqon2_-1" source="1Xk3TkObRtZK_aOqon2_-142" edge="1">
          <mxGeometry width="50" height="50" relative="1" as="geometry">
            <mxPoint x="1072.727272727273" y="860" as="sourcePoint" />
            <mxPoint x="1360" y="880" as="targetPoint" />
            <Array as="points">
              <mxPoint x="1050" y="880" />
            </Array>
          </mxGeometry>
        </mxCell>
        <mxCell id="1Xk3TkObRtZK_aOqon2_-247" value="Расходы" style="text;html=1;strokeColor=none;fillColor=none;align=center;verticalAlign=middle;whiteSpace=wrap;rounded=0;" parent="1Xk3TkObRtZK_aOqon2_-1" vertex="1">
          <mxGeometry x="1130" y="850" width="80" height="30" as="geometry" />
        </mxCell>
        <mxCell id="LBI3mMcfmEepGS83Ov2B-102" value="1" style="whiteSpace=wrap;html=1;aspect=fixed;fillColor=#dae8fc;strokeColor=#6c8ebf;" parent="1Xk3TkObRtZK_aOqon2_-1" vertex="1">
          <mxGeometry x="230" y="370" width="20" height="20" as="geometry" />
        </mxCell>
        <mxCell id="LBI3mMcfmEepGS83Ov2B-103" value="2" style="whiteSpace=wrap;html=1;aspect=fixed;fillColor=#dae8fc;strokeColor=#6c8ebf;" parent="1Xk3TkObRtZK_aOqon2_-1" vertex="1">
          <mxGeometry x="480" y="490" width="20" height="20" as="geometry" />
        </mxCell>
        <mxCell id="LBI3mMcfmEepGS83Ov2B-108" value="3" style="whiteSpace=wrap;html=1;aspect=fixed;fillColor=#dae8fc;strokeColor=#6c8ebf;" parent="1Xk3TkObRtZK_aOqon2_-1" vertex="1">
          <mxGeometry x="750" y="610" width="20" height="20" as="geometry" />
        </mxCell>
        <mxCell id="LBI3mMcfmEepGS83Ov2B-113" value="4" style="whiteSpace=wrap;html=1;aspect=fixed;fillColor=#dae8fc;strokeColor=#6c8ebf;" parent="1Xk3TkObRtZK_aOqon2_-1" vertex="1">
          <mxGeometry x="1050" y="830" width="20" height="20" as="geometry" />
        </mxCell>
        <mxCell id="LBI3mMcfmEepGS83Ov2B-114" value="&lt;h1 style=&quot;border-color: var(--border-color);&quot;&gt;&lt;font style=&quot;border-color: var(--border-color); font-size: 18px;&quot;&gt;Человеческие ресурсы&lt;/font&gt;&lt;/h1&gt;&lt;h1&gt;&lt;div style=&quot;border-color: var(--border-color); font-size: 12px; font-weight: 400;&quot;&gt;Те, для кого создается продукт, или те, кто участвует в создании&lt;/div&gt;&lt;/h1&gt;" style="text;html=1;spacing=5;spacingTop=-20;whiteSpace=wrap;overflow=hidden;rounded=0;fillColor=#fff2cc;strokeColor=#d6b656;" parent="1Xk3TkObRtZK_aOqon2_-1" vertex="1">
          <mxGeometry x="1079.5" y="230" width="181" height="140" as="geometry" />
        </mxCell>
        <mxCell id="LBI3mMcfmEepGS83Ov2B-116" value="&lt;h1 style=&quot;border-color: var(--border-color);&quot;&gt;&lt;font style=&quot;border-color: var(--border-color); font-size: 18px;&quot;&gt;Материальные ресурсы&lt;/font&gt;&lt;/h1&gt;&lt;h1&gt;&lt;div style=&quot;border-color: var(--border-color); font-size: 12px; font-weight: 400;&quot;&gt;Материалы, необходимые для создания проекта, или полученный продукт&lt;/div&gt;&lt;/h1&gt;" style="text;html=1;spacing=5;spacingTop=-20;whiteSpace=wrap;overflow=hidden;rounded=0;fillColor=#d5e8d4;strokeColor=#82b366;" parent="1Xk3TkObRtZK_aOqon2_-1" vertex="1">
          <mxGeometry x="1271" y="230" width="180" height="140" as="geometry" />
        </mxCell>
        <mxCell id="LBI3mMcfmEepGS83Ov2B-115" value="&lt;h1 style=&quot;border-color: var(--border-color);&quot;&gt;&lt;font style=&quot;border-color: var(--border-color); font-size: 18px;&quot;&gt;Информационные ресурсы&lt;/font&gt;&lt;/h1&gt;&lt;h1&gt;&lt;div style=&quot;border-color: var(--border-color); font-size: 12px; font-weight: 400;&quot;&gt;Информация, необходимая для создания продукта, или получаемая из процесса создания&lt;/div&gt;&lt;/h1&gt;" style="text;html=1;spacing=5;spacingTop=-20;whiteSpace=wrap;overflow=hidden;rounded=0;fillColor=#f8cecc;strokeColor=#b85450;" parent="1Xk3TkObRtZK_aOqon2_-1" vertex="1">
          <mxGeometry x="1460" y="230" width="180" height="140" as="geometry" />
        </mxCell>
        <mxCell id="ZFV8rfFCDM1VtcNpgzlx-2" value="&lt;i&gt;&lt;font color=&quot;#999999&quot;&gt;Нужно работать над расширением целевой аудитории, то есть рассматривать разные типы покупателей&lt;/font&gt;&lt;/i&gt;" style="text;html=1;align=center;verticalAlign=middle;whiteSpace=wrap;rounded=0;" parent="1Xk3TkObRtZK_aOqon2_-1" vertex="1">
          <mxGeometry x="1140" y="910" width="230" height="50" as="geometry" />
        </mxCell>
        <mxCell id="ZFV8rfFCDM1VtcNpgzlx-3" value="4" style="whiteSpace=wrap;html=1;aspect=fixed;" parent="1Xk3TkObRtZK_aOqon2_-1" vertex="1">
          <mxGeometry x="1120" y="900" width="20" height="20" as="geometry" />
        </mxCell>
        <mxCell id="ZFV8rfFCDM1VtcNpgzlx-5" value="&lt;i&gt;&lt;font color=&quot;#999999&quot;&gt;Должен рассматривать популярные на данный момент рекламные площадки&lt;/font&gt;&lt;/i&gt;" style="text;html=1;align=center;verticalAlign=middle;whiteSpace=wrap;rounded=0;" parent="1Xk3TkObRtZK_aOqon2_-1" vertex="1">
          <mxGeometry x="1075" y="980" width="190" height="40" as="geometry" />
        </mxCell>
        <mxCell id="ZFV8rfFCDM1VtcNpgzlx-6" value="5" style="whiteSpace=wrap;html=1;aspect=fixed;" parent="1Xk3TkObRtZK_aOqon2_-1" vertex="1">
          <mxGeometry x="1075" y="970" width="20" height="20" as="geometry" />
        </mxCell>
        <mxCell id="ZFV8rfFCDM1VtcNpgzlx-8" value="&lt;i&gt;&lt;font color=&quot;#999999&quot;&gt;Должна быть приемлемой для покупателя&lt;/font&gt;&lt;/i&gt;" style="text;html=1;align=center;verticalAlign=middle;whiteSpace=wrap;rounded=0;" parent="1Xk3TkObRtZK_aOqon2_-1" vertex="1">
          <mxGeometry x="1095" y="640" width="160" height="20" as="geometry" />
        </mxCell>
        <mxCell id="ZFV8rfFCDM1VtcNpgzlx-10" value="2" style="whiteSpace=wrap;html=1;aspect=fixed;" parent="1Xk3TkObRtZK_aOqon2_-1" vertex="1">
          <mxGeometry x="1070" y="630" width="20" height="20" as="geometry" />
        </mxCell>
        <mxCell id="ZFV8rfFCDM1VtcNpgzlx-12" value="&lt;i&gt;&lt;font color=&quot;#999999&quot;&gt;Следует сначала заказывать пробники материалов, а потом закупать оптом&lt;/font&gt;&lt;/i&gt;" style="text;html=1;align=center;verticalAlign=middle;whiteSpace=wrap;rounded=0;" parent="1Xk3TkObRtZK_aOqon2_-1" vertex="1">
          <mxGeometry x="340" y="880" width="200" height="90" as="geometry" />
        </mxCell>
        <mxCell id="ZFV8rfFCDM1VtcNpgzlx-13" value="3" style="whiteSpace=wrap;html=1;aspect=fixed;" parent="1Xk3TkObRtZK_aOqon2_-1" vertex="1">
          <mxGeometry x="530" y="900" width="20" height="20" as="geometry" />
        </mxCell>
        <mxCell id="ZFV8rfFCDM1VtcNpgzlx-15" value="&lt;i&gt;&lt;font color=&quot;#999999&quot;&gt;Если учитывать факт, что мода циклична, можно предугадать будущие тенденции&lt;/font&gt;&lt;/i&gt;" style="text;html=1;align=center;verticalAlign=middle;whiteSpace=wrap;rounded=0;" parent="1Xk3TkObRtZK_aOqon2_-1" vertex="1">
          <mxGeometry x="300" y="170" width="200" height="50" as="geometry" />
        </mxCell>
        <mxCell id="ZFV8rfFCDM1VtcNpgzlx-16" value="1" style="whiteSpace=wrap;html=1;aspect=fixed;" parent="1Xk3TkObRtZK_aOqon2_-1" vertex="1">
          <mxGeometry x="270" y="175" width="20" height="20" as="geometry" />
        </mxCell>
        <mxCell id="JIw2B1q3Y7hgcVSHU6yh-1" value="&lt;b style=&quot;border-color: var(--border-color); font-size: 16px;&quot;&gt;1-ЫЙ КИТ&lt;/b&gt;" style="text;html=1;align=center;verticalAlign=middle;whiteSpace=wrap;rounded=0;fillColor=#fff2cc;strokeColor=#d6b656;" vertex="1" parent="1Xk3TkObRtZK_aOqon2_-1">
          <mxGeometry x="1132.5" y="180" width="85" height="30" as="geometry" />
        </mxCell>
        <mxCell id="JIw2B1q3Y7hgcVSHU6yh-2" value="&lt;b style=&quot;border-color: var(--border-color); font-size: 16px;&quot;&gt;2-ОЙ КИТ&lt;/b&gt;" style="text;html=1;align=center;verticalAlign=middle;whiteSpace=wrap;rounded=0;fillColor=#d5e8d4;strokeColor=#82b366;" vertex="1" parent="1Xk3TkObRtZK_aOqon2_-1">
          <mxGeometry x="1318.5" y="180" width="85" height="30" as="geometry" />
        </mxCell>
        <mxCell id="JIw2B1q3Y7hgcVSHU6yh-3" value="&lt;b style=&quot;border-color: var(--border-color); font-size: 16px;&quot;&gt;3-ИЙ КИТ&lt;/b&gt;" style="text;html=1;align=center;verticalAlign=middle;whiteSpace=wrap;rounded=0;fillColor=#f8cecc;strokeColor=#b85450;" vertex="1" parent="1Xk3TkObRtZK_aOqon2_-1">
          <mxGeometry x="1507.5" y="180" width="85" height="30" as="geometry" />
        </mxCell>
        <mxCell id="JIw2B1q3Y7hgcVSHU6yh-5" value="" style="endArrow=classic;html=1;rounded=0;entryX=0.25;entryY=0;entryDx=0;entryDy=0;" edge="1" parent="1Xk3TkObRtZK_aOqon2_-1" target="JIw2B1q3Y7hgcVSHU6yh-11">
          <mxGeometry width="50" height="50" relative="1" as="geometry">
            <mxPoint x="1167.5" y="370" as="sourcePoint" />
            <mxPoint x="1310" y="500" as="targetPoint" />
          </mxGeometry>
        </mxCell>
        <mxCell id="JIw2B1q3Y7hgcVSHU6yh-9" value="" style="endArrow=classic;html=1;rounded=0;entryX=0.5;entryY=0;entryDx=0;entryDy=0;" edge="1" parent="1Xk3TkObRtZK_aOqon2_-1" target="JIw2B1q3Y7hgcVSHU6yh-11">
          <mxGeometry width="50" height="50" relative="1" as="geometry">
            <mxPoint x="1351" y="370" as="sourcePoint" />
            <mxPoint x="1350" y="500" as="targetPoint" />
          </mxGeometry>
        </mxCell>
        <mxCell id="JIw2B1q3Y7hgcVSHU6yh-11" value="&lt;font style=&quot;&quot;&gt;&lt;font style=&quot;font-weight: bold; font-size: 24px;&quot;&gt;Проект&lt;/font&gt;&lt;br&gt;результат совместной работы 3-х китов&lt;br&gt;&lt;/font&gt;" style="rounded=0;whiteSpace=wrap;html=1;fillColor=#cce5ff;strokeColor=#36393d;" vertex="1" parent="1Xk3TkObRtZK_aOqon2_-1">
          <mxGeometry x="1250" y="500" width="200" height="120" as="geometry" />
        </mxCell>
        <mxCell id="JIw2B1q3Y7hgcVSHU6yh-12" value="&lt;font style=&quot;font-size: 26px;&quot;&gt;+&lt;/font&gt;" style="text;html=1;align=center;verticalAlign=middle;whiteSpace=wrap;rounded=0;" vertex="1" parent="1Xk3TkObRtZK_aOqon2_-1">
          <mxGeometry x="1271" y="420" width="60" height="30" as="geometry" />
        </mxCell>
        <mxCell id="JIw2B1q3Y7hgcVSHU6yh-13" value="&lt;font style=&quot;font-size: 26px;&quot;&gt;+&lt;/font&gt;" style="text;html=1;align=center;verticalAlign=middle;whiteSpace=wrap;rounded=0;" vertex="1" parent="1Xk3TkObRtZK_aOqon2_-1">
          <mxGeometry x="1380" y="420" width="60" height="30" as="geometry" />
        </mxCell>
        <mxCell id="ZFV8rfFCDM1VtcNpgzlx-4" value="" style="endArrow=classic;html=1;rounded=0;exitX=0.5;exitY=0;exitDx=0;exitDy=0;" parent="1" source="ZFV8rfFCDM1VtcNpgzlx-3" edge="1">
          <mxGeometry width="50" height="50" relative="1" as="geometry">
            <mxPoint x="1180" y="530" as="sourcePoint" />
            <mxPoint x="980" y="550" as="targetPoint" />
            <Array as="points">
              <mxPoint x="1000" y="570" />
              <mxPoint x="990" y="580" />
            </Array>
          </mxGeometry>
        </mxCell>
        <mxCell id="ZFV8rfFCDM1VtcNpgzlx-7" value="" style="endArrow=classic;html=1;rounded=0;exitX=0.5;exitY=0;exitDx=0;exitDy=0;" parent="1" source="ZFV8rfFCDM1VtcNpgzlx-6" edge="1">
          <mxGeometry width="50" height="50" relative="1" as="geometry">
            <mxPoint x="1090" y="570" as="sourcePoint" />
            <mxPoint x="890" y="610" as="targetPoint" />
            <Array as="points">
              <mxPoint x="930" y="640" />
              <mxPoint x="930" y="660" />
            </Array>
          </mxGeometry>
        </mxCell>
        <mxCell id="ZFV8rfFCDM1VtcNpgzlx-11" value="" style="endArrow=classic;html=1;rounded=0;exitX=0.5;exitY=0;exitDx=0;exitDy=0;" parent="1" source="ZFV8rfFCDM1VtcNpgzlx-10" edge="1">
          <mxGeometry width="50" height="50" relative="1" as="geometry">
            <mxPoint x="870" y="270" as="sourcePoint" />
            <mxPoint x="900" y="230" as="targetPoint" />
            <Array as="points">
              <mxPoint x="930" y="290" />
              <mxPoint x="920" y="310" />
            </Array>
          </mxGeometry>
        </mxCell>
        <mxCell id="ZFV8rfFCDM1VtcNpgzlx-14" value="" style="endArrow=classic;html=1;rounded=0;exitX=0.5;exitY=0;exitDx=0;exitDy=0;" parent="1" source="ZFV8rfFCDM1VtcNpgzlx-13" edge="1">
          <mxGeometry width="50" height="50" relative="1" as="geometry">
            <mxPoint x="580" y="620" as="sourcePoint" />
            <mxPoint x="540" y="450" as="targetPoint" />
            <Array as="points">
              <mxPoint x="470" y="550" />
              <mxPoint x="460" y="550" />
            </Array>
          </mxGeometry>
        </mxCell>
        <mxCell id="ZFV8rfFCDM1VtcNpgzlx-17" value="" style="endArrow=classic;html=1;rounded=0;exitX=0.5;exitY=1;exitDx=0;exitDy=0;" parent="1" source="ZFV8rfFCDM1VtcNpgzlx-16" edge="1">
          <mxGeometry width="50" height="50" relative="1" as="geometry">
            <mxPoint x="650" y="260" as="sourcePoint" />
            <mxPoint x="100" y="-40" as="targetPoint" />
            <Array as="points">
              <mxPoint x="130" y="-60" />
              <mxPoint x="130" y="-70" />
            </Array>
          </mxGeometry>
        </mxCell>
        <mxCell id="JIw2B1q3Y7hgcVSHU6yh-6" value="" style="endArrow=classic;html=1;rounded=0;entryX=0.75;entryY=0;entryDx=0;entryDy=0;" edge="1" parent="1" target="JIw2B1q3Y7hgcVSHU6yh-11">
          <mxGeometry width="50" height="50" relative="1" as="geometry">
            <mxPoint x="1440" y="70" as="sourcePoint" />
            <mxPoint x="1280" y="200" as="targetPoint" />
          </mxGeometry>
        </mxCell>
      </root>
    </mxGraphModel>
  </diagram>
</mxfile>
